0
SECTION
2
ENTITIES
0
LINE
8
FCrtYd
62
7
10
110.616
20
-123.958
11
106.916
21
-123.958
0
LINE
8
FCrtYd
62
7
10
106.916
20
-123.958
11
106.916
21
-122.058
0
LINE
8
FCrtYd
62
7
10
110.616
20
-122.058
11
110.616
21
-123.958
0
LINE
8
FCrtYd
62
7
10
106.916
20
-122.058
11
110.616
21
-122.058
0
LINE
8
FFab
62
5
10
109.766
20
-123.608
11
107.766
21
-123.608
0
LINE
8
FFab
62
5
10
107.766
20
-122.408
11
109.766
21
-122.408
0
LINE
8
FFab
62
5
10
109.766
20
-122.408
11
109.766
21
-123.608
0
LINE
8
FFab
62
5
10
107.766
20
-123.608
11
107.766
21
-122.408
0
LINE
8
FCrtYd
62
7
10
112.394
20
-136.409
11
112.394
21
-138.309
0
LINE
8
FCrtYd
62
7
10
112.394
20
-138.309
11
108.694
21
-138.309
0
LINE
8
FCrtYd
62
7
10
108.694
20
-136.409
11
112.394
21
-136.409
0
LINE
8
FCrtYd
62
7
10
108.694
20
-138.309
11
108.694
21
-136.409
0
LINE
8
FFab
62
5
10
111.544
20
-137.959
11
109.544
21
-137.959
0
LINE
8
FFab
62
5
10
111.544
20
-136.759
11
111.544
21
-137.959
0
LINE
8
FFab
62
5
10
109.544
20
-136.759
11
111.544
21
-136.759
0
LINE
8
FFab
62
5
10
109.544
20
-137.959
11
109.544
21
-136.759
0
LINE
8
FCrtYd
62
7
10
76.0772
20
-101.6864
11
76.0772
21
-99.7864
0
LINE
8
FCrtYd
62
7
10
76.0772
20
-99.7864
11
79.7772
21
-99.7864
0
LINE
8
FCrtYd
62
7
10
79.7772
20
-99.7864
11
79.7772
21
-101.6864
0
LINE
8
FCrtYd
62
7
10
79.7772
20
-101.6864
11
76.0772
21
-101.6864
0
LINE
8
FFab
62
5
10
78.9272
20
-101.3364
11
76.9272
21
-101.3364
0
LINE
8
FFab
62
5
10
76.9272
20
-100.1364
11
78.9272
21
-100.1364
0
LINE
8
FFab
62
5
10
78.9272
20
-100.1364
11
78.9272
21
-101.3364
0
LINE
8
FFab
62
5
10
76.9272
20
-101.3364
11
76.9272
21
-100.1364
0
LINE
8
FCrtYd
62
7
10
102.174
20
-104.4998
11
104.074
21
-104.4998
0
LINE
8
FCrtYd
62
7
10
102.174
20
-108.1998
11
102.174
21
-104.4998
0
LINE
8
FCrtYd
62
7
10
104.074
20
-108.1998
11
102.174
21
-108.1998
0
LINE
8
FCrtYd
62
7
10
104.074
20
-104.4998
11
104.074
21
-108.1998
0
LINE
8
FFab
62
5
10
102.524
20
-105.3498
11
103.724
21
-105.3498
0
LINE
8
FFab
62
5
10
103.724
20
-105.3498
11
103.724
21
-107.3498
0
LINE
8
FFab
62
5
10
102.524
20
-107.3498
11
102.524
21
-105.3498
0
LINE
8
FFab
62
5
10
103.724
20
-107.3498
11
102.524
21
-107.3498
0
LINE
8
FCrtYd
62
7
10
76.851392
20
-142.8556
11
76.851392
21
-140.9556
0
LINE
8
FCrtYd
62
7
10
76.851392
20
-140.9556
11
80.551392
21
-140.9556
0
LINE
8
FCrtYd
62
7
10
80.551392
20
-142.8556
11
76.851392
21
-142.8556
0
LINE
8
FCrtYd
62
7
10
80.551392
20
-140.9556
11
80.551392
21
-142.8556
0
LINE
8
FFab
62
5
10
77.701392
20
-141.3056
11
79.701392
21
-141.3056
0
LINE
8
FFab
62
5
10
79.701392
20
-142.5056
11
77.701392
21
-142.5056
0
LINE
8
FFab
62
5
10
77.701392
20
-142.5056
11
77.701392
21
-141.3056
0
LINE
8
FFab
62
5
10
79.701392
20
-141.3056
11
79.701392
21
-142.5056
0
LINE
8
FCrtYd
62
7
10
88.85
20
-141.85
11
86.95
21
-141.85
0
LINE
8
FCrtYd
62
7
10
86.95
20
-138.15
11
88.85
21
-138.15
0
LINE
8
FCrtYd
62
7
10
86.95
20
-141.85
11
86.95
21
-138.15
0
LINE
8
FCrtYd
62
7
10
88.85
20
-138.15
11
88.85
21
-141.85
0
LINE
8
FFab
62
5
10
88.5
20
-139.0
11
88.5
21
-141.0
0
LINE
8
FFab
62
5
10
88.5
20
-141.0
11
87.3
21
-141.0
0
LINE
8
FFab
62
5
10
87.3
20
-141.0
11
87.3
21
-139.0
0
LINE
8
FFab
62
5
10
87.3
20
-139.0
11
88.5
21
-139.0
0
LINE
8
FCrtYd
62
7
10
87.7214
20
-125.2516
11
89.6214
21
-125.2516
0
LINE
8
FCrtYd
62
7
10
89.6214
20
-125.2516
11
89.6214
21
-128.9516
0
LINE
8
FCrtYd
62
7
10
87.7214
20
-128.9516
11
87.7214
21
-125.2516
0
LINE
8
FCrtYd
62
7
10
89.6214
20
-128.9516
11
87.7214
21
-128.9516
0
LINE
8
FFab
62
5
10
89.2714
20
-128.1016
11
88.0714
21
-128.1016
0
LINE
8
FFab
62
5
10
89.2714
20
-126.1016
11
89.2714
21
-128.1016
0
LINE
8
FFab
62
5
10
88.0714
20
-128.1016
11
88.0714
21
-126.1016
0
LINE
8
FFab
62
5
10
88.0714
20
-126.1016
11
89.2714
21
-126.1016
0
LINE
8
FCrtYd
62
7
10
89.149997
20
-141.850001
11
89.149997
21
-138.150001
0
LINE
8
FCrtYd
62
7
10
91.049997
20
-138.150001
11
91.049997
21
-141.850001
0
LINE
8
FCrtYd
62
7
10
89.149997
20
-138.150001
11
91.049997
21
-138.150001
0
LINE
8
FCrtYd
62
7
10
91.049997
20
-141.850001
11
89.149997
21
-141.850001
0
LINE
8
FFab
62
5
10
90.699997
20
-139.000001
11
90.699997
21
-141.000001
0
LINE
8
FFab
62
5
10
90.699997
20
-141.000001
11
89.499997
21
-141.000001
0
LINE
8
FFab
62
5
10
89.499997
20
-141.000001
11
89.499997
21
-139.000001
0
LINE
8
FFab
62
5
10
89.499997
20
-139.000001
11
90.699997
21
-139.000001
0
LINE
8
FCrtYd
62
7
10
74.0632
20
-131.9976
11
74.0632
21
-133.8976
0
LINE
8
FCrtYd
62
7
10
74.0632
20
-133.8976
11
70.7032
21
-133.8976
0
LINE
8
FCrtYd
62
7
10
70.7032
20
-131.9976
11
74.0632
21
-131.9976
0
LINE
8
FCrtYd
62
7
10
70.7032
20
-133.8976
11
70.7032
21
-131.9976
0
LINE
8
FFab
62
5
10
71.3832
20
-132.6476
11
71.3832
21
-133.5476
0
LINE
8
FFab
62
5
10
73.3832
20
-132.3476
11
71.6832
21
-132.3476
0
LINE
8
FFab
62
5
10
71.6832
20
-132.3476
11
71.3832
21
-132.6476
0
LINE
8
FFab
62
5
10
73.3832
20
-133.5476
11
73.3832
21
-132.3476
0
LINE
8
FFab
62
5
10
71.3832
20
-133.5476
11
73.3832
21
-133.5476
0
LINE
8
FCrtYd
62
7
10
74.7832
20
-106.8176
11
71.5832
21
-106.8176
0
LINE
8
FCrtYd
62
7
10
71.5832
20
-119.6776
11
74.7832
21
-119.6776
0
LINE
8
FCrtYd
62
7
10
74.7832
20
-119.6776
11
74.7832
21
-106.8176
0
LINE
8
FCrtYd
62
7
10
71.5832
20
-106.8176
11
71.5832
21
-119.6776
0
LINE
8
FFab
62
5
10
74.5332
20
-110.6476
11
71.8332
21
-110.6476
0
LINE
8
FFab
62
5
10
74.5332
20
-111.3276
11
71.8332
21
-111.3276
0
LINE
8
FFab
62
5
10
73.1832
20
-108.1676
11
73.1832
21
-110.6476
0
LINE
8
FFab
62
5
10
71.8332
20
-110.6476
11
71.8332
21
-115.8476
0
LINE
8
FFab
62
5
10
71.8332
20
-115.8476
11
74.5332
21
-115.8476
0
LINE
8
FFab
62
5
10
74.5332
20
-111.5276
11
71.8332
21
-111.5276
0
LINE
8
FFab
62
5
10
74.5332
20
-115.8476
11
74.5332
21
-110.6476
0
LINE
8
FFab
62
5
10
73.1832
20
-118.3276
11
73.1832
21
-115.8476
0
LINE
8
FFab
62
5
10
74.5332
20
-111.4276
11
71.8332
21
-111.4276
0
LINE
8
FCrtYd
62
7
10
55.986
20
-139.466
11
62.486
21
-139.466
0
LINE
8
FCrtYd
62
7
10
62.486
20
-139.466
11
62.486
21
-132.966
0
LINE
8
FCrtYd
62
7
10
62.486
20
-132.966
11
55.986
21
-132.966
0
LINE
8
FCrtYd
62
7
10
55.986
20
-132.966
11
55.986
21
-139.466
0
LINE
8
FFab
62
5
10
56.741
20
-134.746306
11
56.741
21
-137.685694
0
ARC
8
FFab
62
5
10
56.741
20
-134.746306
30
0
40
5.596432
50
-15.225317
51
-14.630301
0
CIRCLE
8
FFab
62
5
10
59.241
20
-136.216
40
2.5
0
LINE
8
FCrtYd
62
7
10
61.2332
20
-145.1276
11
56.3332
21
-145.1276
0
LINE
8
FCrtYd
62
7
10
61.2332
20
-141.9676
11
61.2332
21
-145.1276
0
LINE
8
FCrtYd
62
7
10
56.3332
20
-141.9676
11
61.2332
21
-141.9676
0
LINE
8
FCrtYd
62
7
10
56.3332
20
-145.1276
11
56.3332
21
-141.9676
0
LINE
8
FFab
62
5
10
60.3832
20
-144.7976
11
57.1832
21
-144.7976
0
LINE
8
FFab
62
5
10
57.1832
20
-144.7976
11
57.1832
21
-142.2976
0
LINE
8
FFab
62
5
10
57.1832
20
-142.2976
11
60.3832
21
-142.2976
0
LINE
8
FFab
62
5
10
60.3832
20
-142.2976
11
60.3832
21
-144.7976
0
LINE
8
FCrtYd
62
7
10
48.9832
20
-118.639
11
36.3832
21
-118.639
0
LINE
8
FCrtYd
62
7
10
48.9832
20
-100.199
11
48.9832
21
-118.639
0
LINE
8
FCrtYd
62
7
10
36.3832
20
-100.199
11
48.9832
21
-100.199
0
LINE
8
FCrtYd
62
7
10
36.3832
20
-118.639
11
36.3832
21
-100.199
0
LINE
8
FFab
62
5
10
37.3832
20
-117.639
11
37.3832
21
-101.199
0
LINE
8
FFab
62
5
10
47.9832
20
-101.199
11
47.9832
21
-117.639
0
LINE
8
FFab
62
5
10
37.3832
20
-101.199
11
47.9832
21
-101.199
0
LINE
8
FFab
62
5
10
47.9832
20
-117.639
11
37.3832
21
-117.639
0
LINE
8
FCrtYd
62
7
10
49.3832
20
-103.0476
11
68.9832
21
-103.0476
0
LINE
8
FCrtYd
62
7
10
68.9832
20
-103.0476
11
68.9832
21
-119.0476
0
LINE
8
FCrtYd
62
7
10
68.9832
20
-119.0476
11
49.3832
21
-119.0476
0
LINE
8
FCrtYd
62
7
10
49.3832
20
-119.0476
11
49.3832
21
-103.0476
0
LINE
8
FFab
62
5
10
49.6332
20
-103.2976
11
68.7332
21
-103.2976
0
LINE
8
FFab
62
5
10
68.7332
20
-118.7976
11
49.6332
21
-118.7976
0
LINE
8
FFab
62
5
10
68.7332
20
-103.2976
11
68.7332
21
-118.7976
0
LINE
8
FFab
62
5
10
49.6332
20
-118.7976
11
49.6332
21
-103.2976
0
LINE
8
FCrtYd
62
7
10
76.055
20
-105.162
11
76.055
21
-103.262
0
LINE
8
FCrtYd
62
7
10
79.755
20
-105.162
11
76.055
21
-105.162
0
LINE
8
FCrtYd
62
7
10
79.755
20
-103.262
11
79.755
21
-105.162
0
LINE
8
FCrtYd
62
7
10
76.055
20
-103.262
11
79.755
21
-103.262
0
LINE
8
FFab
62
5
10
78.905
20
-104.812
11
76.905
21
-104.812
0
LINE
8
FFab
62
5
10
76.905
20
-103.612
11
78.905
21
-103.612
0
LINE
8
FFab
62
5
10
78.905
20
-103.612
11
78.905
21
-104.812
0
LINE
8
FFab
62
5
10
76.905
20
-104.812
11
76.905
21
-103.612
0
LINE
8
FCrtYd
62
7
10
101.7404
20
-104.4956
11
101.7404
21
-108.1956
0
LINE
8
FCrtYd
62
7
10
99.8404
20
-104.4956
11
101.7404
21
-104.4956
0
LINE
8
FCrtYd
62
7
10
99.8404
20
-108.1956
11
99.8404
21
-104.4956
0
LINE
8
FCrtYd
62
7
10
101.7404
20
-108.1956
11
99.8404
21
-108.1956
0
LINE
8
FFab
62
5
10
100.1904
20
-105.3456
11
101.3904
21
-105.3456
0
LINE
8
FFab
62
5
10
101.3904
20
-107.3456
11
100.1904
21
-107.3456
0
LINE
8
FFab
62
5
10
100.1904
20
-107.3456
11
100.1904
21
-105.3456
0
LINE
8
FFab
62
5
10
101.3904
20
-105.3456
11
101.3904
21
-107.3456
0
LINE
8
FCrtYd
62
7
10
61.399001
20
-132.496001
11
61.399001
21
-128.796001
0
LINE
8
FCrtYd
62
7
10
63.299001
20
-132.496001
11
61.399001
21
-132.496001
0
LINE
8
FCrtYd
62
7
10
63.299001
20
-128.796001
11
63.299001
21
-132.496001
0
LINE
8
FCrtYd
62
7
10
61.399001
20
-128.796001
11
63.299001
21
-128.796001
0
LINE
8
FFab
62
5
10
62.949001
20
-131.646001
11
61.749001
21
-131.646001
0
LINE
8
FFab
62
5
10
61.749001
20
-131.646001
11
61.749001
21
-129.646001
0
LINE
8
FFab
62
5
10
61.749001
20
-129.646001
11
62.949001
21
-129.646001
0
LINE
8
FFab
62
5
10
62.949001
20
-129.646001
11
62.949001
21
-131.646001
0
LINE
8
FCrtYd
62
7
10
70.5332
20
-129.3976
11
74.2332
21
-129.3976
0
LINE
8
FCrtYd
62
7
10
74.2332
20
-131.2976
11
70.5332
21
-131.2976
0
LINE
8
FCrtYd
62
7
10
70.5332
20
-131.2976
11
70.5332
21
-129.3976
0
LINE
8
FCrtYd
62
7
10
74.2332
20
-129.3976
11
74.2332
21
-131.2976
0
LINE
8
FFab
62
5
10
71.3832
20
-129.7476
11
73.3832
21
-129.7476
0
LINE
8
FFab
62
5
10
73.3832
20
-129.7476
11
73.3832
21
-130.9476
0
LINE
8
FFab
62
5
10
73.3832
20
-130.9476
11
71.3832
21
-130.9476
0
LINE
8
FFab
62
5
10
71.3832
20
-130.9476
11
71.3832
21
-129.7476
0
LINE
8
FCrtYd
62
7
10
69.203
20
-132.351
11
67.303
21
-132.351
0
LINE
8
FCrtYd
62
7
10
67.303
20
-132.351
11
67.303
21
-128.651
0
LINE
8
FCrtYd
62
7
10
69.203
20
-128.651
11
69.203
21
-132.351
0
LINE
8
FCrtYd
62
7
10
67.303
20
-128.651
11
69.203
21
-128.651
0
LINE
8
FFab
62
5
10
67.653
20
-131.501
11
67.653
21
-129.501
0
LINE
8
FFab
62
5
10
68.853
20
-131.501
11
67.653
21
-131.501
0
LINE
8
FFab
62
5
10
68.853
20
-129.501
11
68.853
21
-131.501
0
LINE
8
FFab
62
5
10
67.653
20
-129.501
11
68.853
21
-129.501
0
LINE
8
FCrtYd
62
7
10
56.741629
20
-129.030469
11
58.641629
21
-129.030469
0
LINE
8
FCrtYd
62
7
10
58.641629
20
-129.030469
11
58.641629
21
-132.730469
0
LINE
8
FCrtYd
62
7
10
56.741629
20
-132.730469
11
56.741629
21
-129.030469
0
LINE
8
FCrtYd
62
7
10
58.641629
20
-132.730469
11
56.741629
21
-132.730469
0
LINE
8
FFab
62
5
10
58.291629
20
-131.880469
11
57.091629
21
-131.880469
0
LINE
8
FFab
62
5
10
57.091629
20
-129.880469
11
58.291629
21
-129.880469
0
LINE
8
FFab
62
5
10
58.291629
20
-129.880469
11
58.291629
21
-131.880469
0
LINE
8
FFab
62
5
10
57.091629
20
-131.880469
11
57.091629
21
-129.880469
0
LINE
8
FCrtYd
62
7
10
77.6408
20
-136.7536
11
79.5408
21
-136.7536
0
LINE
8
FCrtYd
62
7
10
77.6408
20
-140.4536
11
77.6408
21
-136.7536
0
LINE
8
FCrtYd
62
7
10
79.5408
20
-140.4536
11
77.6408
21
-140.4536
0
LINE
8
FCrtYd
62
7
10
79.5408
20
-136.7536
11
79.5408
21
-140.4536
0
LINE
8
FFab
62
5
10
79.1908
20
-137.6036
11
79.1908
21
-139.6036
0
LINE
8
FFab
62
5
10
77.9908
20
-137.6036
11
79.1908
21
-137.6036
0
LINE
8
FFab
62
5
10
79.1908
20
-139.6036
11
77.9908
21
-139.6036
0
LINE
8
FFab
62
5
10
77.9908
20
-139.6036
11
77.9908
21
-137.6036
0
LINE
8
FCrtYd
62
7
10
80.1808
20
-140.4536
11
80.1808
21
-136.7536
0
LINE
8
FCrtYd
62
7
10
80.1808
20
-136.7536
11
82.0808
21
-136.7536
0
LINE
8
FCrtYd
62
7
10
82.0808
20
-136.7536
11
82.0808
21
-140.4536
0
LINE
8
FCrtYd
62
7
10
82.0808
20
-140.4536
11
80.1808
21
-140.4536
0
LINE
8
FFab
62
5
10
81.7308
20
-137.6036
11
81.7308
21
-139.6036
0
LINE
8
FFab
62
5
10
80.5308
20
-137.6036
11
81.7308
21
-137.6036
0
LINE
8
FFab
62
5
10
81.7308
20
-139.6036
11
80.5308
21
-139.6036
0
LINE
8
FFab
62
5
10
80.5308
20
-139.6036
11
80.5308
21
-137.6036
0
LINE
8
FCrtYd
62
7
10
83.549989
20
-134.25
11
83.549989
21
-136.15
0
LINE
8
FCrtYd
62
7
10
79.849989
20
-134.25
11
83.549989
21
-134.25
0
LINE
8
FCrtYd
62
7
10
79.849989
20
-136.15
11
79.849989
21
-134.25
0
LINE
8
FCrtYd
62
7
10
83.549989
20
-136.15
11
79.849989
21
-136.15
0
LINE
8
FFab
62
5
10
80.699989
20
-135.8
11
80.699989
21
-134.6
0
LINE
8
FFab
62
5
10
82.699989
20
-135.8
11
80.699989
21
-135.8
0
LINE
8
FFab
62
5
10
82.699989
20
-134.6
11
82.699989
21
-135.8
0
LINE
8
FFab
62
5
10
80.699989
20
-134.6
11
82.699989
21
-134.6
0
LINE
8
FCrtYd
62
7
10
83.549989
20
-133.65
11
79.849989
21
-133.65
0
LINE
8
FCrtYd
62
7
10
79.849989
20
-131.75
11
83.549989
21
-131.75
0
LINE
8
FCrtYd
62
7
10
83.549989
20
-131.75
11
83.549989
21
-133.65
0
LINE
8
FCrtYd
62
7
10
79.849989
20
-133.65
11
79.849989
21
-131.75
0
LINE
8
FFab
62
5
10
80.699989
20
-132.1
11
82.699989
21
-132.1
0
LINE
8
FFab
62
5
10
82.699989
20
-133.3
11
80.699989
21
-133.3
0
LINE
8
FFab
62
5
10
82.699989
20
-132.1
11
82.699989
21
-133.3
0
LINE
8
FFab
62
5
10
80.699989
20
-133.3
11
80.699989
21
-132.1
0
LINE
8
FCrtYd
62
7
10
84.650006
20
-138.150001
11
86.550006
21
-138.150001
0
LINE
8
FCrtYd
62
7
10
86.550006
20
-138.150001
11
86.550006
21
-141.850001
0
LINE
8
FCrtYd
62
7
10
86.550006
20
-141.850001
11
84.650006
21
-141.850001
0
LINE
8
FCrtYd
62
7
10
84.650006
20
-141.850001
11
84.650006
21
-138.150001
0
LINE
8
FFab
62
5
10
86.200006
20
-139.000001
11
86.200006
21
-141.000001
0
LINE
8
FFab
62
5
10
86.200006
20
-141.000001
11
85.000006
21
-141.000001
0
LINE
8
FFab
62
5
10
85.000006
20
-141.000001
11
85.000006
21
-139.000001
0
LINE
8
FFab
62
5
10
85.000006
20
-139.000001
11
86.200006
21
-139.000001
0
LINE
8
FCrtYd
62
7
10
94.0332
20
-138.9976
11
94.0332
21
-142.6976
0
LINE
8
FCrtYd
62
7
10
94.0332
20
-142.6976
11
92.1332
21
-142.6976
0
LINE
8
FCrtYd
62
7
10
92.1332
20
-142.6976
11
92.1332
21
-138.9976
0
LINE
8
FCrtYd
62
7
10
92.1332
20
-138.9976
11
94.0332
21
-138.9976
0
LINE
8
FFab
62
5
10
93.6832
20
-139.8476
11
93.6832
21
-141.8476
0
LINE
8
FFab
62
5
10
92.4832
20
-141.8476
11
92.4832
21
-139.8476
0
LINE
8
FFab
62
5
10
92.4832
20
-139.8476
11
93.6832
21
-139.8476
0
LINE
8
FFab
62
5
10
93.6832
20
-141.8476
11
92.4832
21
-141.8476
0
LINE
8
FCrtYd
62
7
10
97.4332
20
-133.604
11
99.3332
21
-133.604
0
LINE
8
FCrtYd
62
7
10
97.4332
20
-137.304
11
97.4332
21
-133.604
0
LINE
8
FCrtYd
62
7
10
99.3332
20
-133.604
11
99.3332
21
-137.304
0
LINE
8
FCrtYd
62
7
10
99.3332
20
-137.304
11
97.4332
21
-137.304
0
LINE
8
FFab
62
5
10
97.7832
20
-136.454
11
97.7832
21
-134.454
0
LINE
8
FFab
62
5
10
98.9832
20
-136.454
11
97.7832
21
-136.454
0
LINE
8
FFab
62
5
10
97.7832
20
-134.454
11
98.9832
21
-134.454
0
LINE
8
FFab
62
5
10
98.9832
20
-134.454
11
98.9832
21
-136.454
0
LINE
8
FCrtYd
62
7
10
89.949994
20
-129.249999
11
89.949994
21
-127.349999
0
LINE
8
FCrtYd
62
7
10
89.949994
20
-127.349999
11
93.649994
21
-127.349999
0
LINE
8
FCrtYd
62
7
10
93.649994
20
-127.349999
11
93.649994
21
-129.249999
0
LINE
8
FCrtYd
62
7
10
93.649994
20
-129.249999
11
89.949994
21
-129.249999
0
LINE
8
FFab
62
5
10
92.799994
20
-127.699999
11
92.799994
21
-128.899999
0
LINE
8
FFab
62
5
10
90.799994
20
-128.899999
11
90.799994
21
-127.699999
0
LINE
8
FFab
62
5
10
92.799994
20
-128.899999
11
90.799994
21
-128.899999
0
LINE
8
FFab
62
5
10
90.799994
20
-127.699999
11
92.799994
21
-127.699999
0
LINE
8
FCrtYd
62
7
10
94.35001
20
-127.450001
11
98.05001
21
-127.450001
0
LINE
8
FCrtYd
62
7
10
94.35001
20
-129.350001
11
94.35001
21
-127.450001
0
LINE
8
FCrtYd
62
7
10
98.05001
20
-127.450001
11
98.05001
21
-129.350001
0
LINE
8
FCrtYd
62
7
10
98.05001
20
-129.350001
11
94.35001
21
-129.350001
0
LINE
8
FFab
62
5
10
95.20001
20
-127.800001
11
97.20001
21
-127.800001
0
LINE
8
FFab
62
5
10
97.20001
20
-129.000001
11
95.20001
21
-129.000001
0
LINE
8
FFab
62
5
10
95.20001
20
-129.000001
11
95.20001
21
-127.800001
0
LINE
8
FFab
62
5
10
97.20001
20
-127.800001
11
97.20001
21
-129.000001
0
LINE
8
FCrtYd
62
7
10
101.98
20
-127.450001
11
101.98
21
-129.350001
0
LINE
8
FCrtYd
62
7
10
101.98
20
-129.350001
11
98.28
21
-129.350001
0
LINE
8
FCrtYd
62
7
10
98.28
20
-129.350001
11
98.28
21
-127.450001
0
LINE
8
FCrtYd
62
7
10
98.28
20
-127.450001
11
101.98
21
-127.450001
0
LINE
8
FFab
62
5
10
99.13
20
-129.000001
11
99.13
21
-127.800001
0
LINE
8
FFab
62
5
10
99.13
20
-127.800001
11
101.13
21
-127.800001
0
LINE
8
FFab
62
5
10
101.13
20
-129.000001
11
99.13
21
-129.000001
0
LINE
8
FFab
62
5
10
101.13
20
-127.800001
11
101.13
21
-129.000001
0
LINE
8
FCrtYd
62
7
10
99.313
20
-132.594
11
95.613
21
-132.594
0
LINE
8
FCrtYd
62
7
10
95.613
20
-130.694
11
99.313
21
-130.694
0
LINE
8
FCrtYd
62
7
10
99.313
20
-130.694
11
99.313
21
-132.594
0
LINE
8
FCrtYd
62
7
10
95.613
20
-132.594
11
95.613
21
-130.694
0
LINE
8
FFab
62
5
10
96.463
20
-131.044
11
98.463
21
-131.044
0
LINE
8
FFab
62
5
10
98.463
20
-132.244
11
96.463
21
-132.244
0
LINE
8
FFab
62
5
10
98.463
20
-131.044
11
98.463
21
-132.244
0
LINE
8
FFab
62
5
10
96.463
20
-132.244
11
96.463
21
-131.044
0
LINE
8
FCrtYd
62
7
10
81.143008
20
-127.265
11
81.143008
21
-129.165
0
LINE
8
FCrtYd
62
7
10
81.143008
20
-129.165
11
77.443008
21
-129.165
0
LINE
8
FCrtYd
62
7
10
77.443008
20
-127.265
11
81.143008
21
-127.265
0
LINE
8
FCrtYd
62
7
10
77.443008
20
-129.165
11
77.443008
21
-127.265
0
LINE
8
FFab
62
5
10
78.293008
20
-127.615
11
80.293008
21
-127.615
0
LINE
8
FFab
62
5
10
80.293008
20
-127.615
11
80.293008
21
-128.815
0
LINE
8
FFab
62
5
10
78.293008
20
-128.815
11
78.293008
21
-127.615
0
LINE
8
FFab
62
5
10
80.293008
20
-128.815
11
78.293008
21
-128.815
0
LINE
8
FCrtYd
62
7
10
85.5624
20
-128.9352
11
85.5624
21
-125.2352
0
LINE
8
FCrtYd
62
7
10
85.5624
20
-125.2352
11
87.4624
21
-125.2352
0
LINE
8
FCrtYd
62
7
10
87.4624
20
-125.2352
11
87.4624
21
-128.9352
0
LINE
8
FCrtYd
62
7
10
87.4624
20
-128.9352
11
85.5624
21
-128.9352
0
LINE
8
FFab
62
5
10
87.1124
20
-128.0852
11
85.9124
21
-128.0852
0
LINE
8
FFab
62
5
10
85.9124
20
-128.0852
11
85.9124
21
-126.0852
0
LINE
8
FFab
62
5
10
87.1124
20
-126.0852
11
87.1124
21
-128.0852
0
LINE
8
FFab
62
5
10
85.9124
20
-126.0852
11
87.1124
21
-126.0852
0
LINE
8
FCrtYd
62
7
10
81.75001
20
-127.349999
11
85.45001
21
-127.349999
0
LINE
8
FCrtYd
62
7
10
85.45001
20
-129.249999
11
81.75001
21
-129.249999
0
LINE
8
FCrtYd
62
7
10
81.75001
20
-129.249999
11
81.75001
21
-127.349999
0
LINE
8
FCrtYd
62
7
10
85.45001
20
-127.349999
11
85.45001
21
-129.249999
0
LINE
8
FFab
62
5
10
82.60001
20
-127.699999
11
84.60001
21
-127.699999
0
LINE
8
FFab
62
5
10
84.60001
20
-128.899999
11
82.60001
21
-128.899999
0
LINE
8
FFab
62
5
10
84.60001
20
-127.699999
11
84.60001
21
-128.899999
0
LINE
8
FFab
62
5
10
82.60001
20
-128.899999
11
82.60001
21
-127.699999
0
LINE
8
FCrtYd
62
7
10
83.449989
20
-129.549999
11
83.449989
21
-131.449999
0
LINE
8
FCrtYd
62
7
10
83.449989
20
-131.449999
11
79.749989
21
-131.449999
0
LINE
8
FCrtYd
62
7
10
79.749989
20
-129.549999
11
83.449989
21
-129.549999
0
LINE
8
FCrtYd
62
7
10
79.749989
20
-131.449999
11
79.749989
21
-129.549999
0
LINE
8
FFab
62
5
10
82.599989
20
-129.899999
11
82.599989
21
-131.099999
0
LINE
8
FFab
62
5
10
80.599989
20
-129.899999
11
82.599989
21
-129.899999
0
LINE
8
FFab
62
5
10
82.599989
20
-131.099999
11
80.599989
21
-131.099999
0
LINE
8
FFab
62
5
10
80.599989
20
-131.099999
11
80.599989
21
-129.899999
0
LINE
8
FCrtYd
62
7
10
51.042
20
-128.024999
11
51.042
21
-131.724999
0
LINE
8
FCrtYd
62
7
10
51.042
20
-131.724999
11
49.142
21
-131.724999
0
LINE
8
FCrtYd
62
7
10
49.142
20
-131.724999
11
49.142
21
-128.024999
0
LINE
8
FCrtYd
62
7
10
49.142
20
-128.024999
11
51.042
21
-128.024999
0
LINE
8
FFab
62
5
10
50.692
20
-128.874999
11
50.692
21
-130.874999
0
LINE
8
FFab
62
5
10
49.492
20
-130.874999
11
49.492
21
-128.874999
0
LINE
8
FFab
62
5
10
50.692
20
-130.874999
11
49.492
21
-130.874999
0
LINE
8
FFab
62
5
10
49.492
20
-128.874999
11
50.692
21
-128.874999
0
LINE
8
FCrtYd
62
7
10
105.901
20
-124.57
11
105.901
21
-135.67
0
LINE
8
FCrtYd
62
7
10
105.901
20
-135.67
11
112.901
21
-135.67
0
LINE
8
FCrtYd
62
7
10
112.901
20
-124.57
11
105.901
21
-124.57
0
LINE
8
FCrtYd
62
7
10
112.901
20
-135.67
11
112.901
21
-124.57
0
LINE
8
FFab
62
5
10
112.056
20
-128.255
11
112.056
21
-125.15
0
LINE
8
FFab
62
5
10
106.701
20
-135.07
11
106.701
21
-134.07
0
LINE
8
FFab
62
5
10
107.496
20
-125.15
11
106.746
21
-125.15
0
LINE
8
FFab
62
5
10
112.651
20
-134.07
11
106.151
21
-134.07
0
LINE
8
FFab
62
5
10
112.101
20
-135.07
11
106.701
21
-135.07
0
LINE
8
FFab
62
5
10
106.151
20
-127.85
11
111.651
21
-127.85
0
LINE
8
FFab
62
5
10
112.651
20
-128.85
11
112.651
21
-134.07
0
LINE
8
FFab
62
5
10
106.746
20
-125.15
11
106.746
21
-127.85
0
LINE
8
FFab
62
5
10
111.306
20
-125.15
11
111.306
21
-127.85
0
LINE
8
FFab
62
5
10
107.496
20
-127.85
11
107.496
21
-125.15
0
LINE
8
FFab
62
5
10
112.101
20
-134.07
11
112.101
21
-135.07
0
LINE
8
FFab
62
5
10
106.151
20
-134.07
11
106.151
21
-127.85
0
LINE
8
FFab
62
5
10
111.651
20
-127.85
11
112.651
21
-128.85
0
LINE
8
FFab
62
5
10
112.056
20
-125.15
11
111.306
21
-125.15
0
LINE
8
FCrtYd
62
7
10
84.62
20
-137.5
11
93.78
21
-137.5
0
LINE
8
FCrtYd
62
7
10
84.62
20
-130.1
11
84.62
21
-137.5
0
LINE
8
FCrtYd
62
7
10
93.78
20
-137.5
11
93.78
21
-130.1
0
LINE
8
FCrtYd
62
7
10
93.78
20
-130.1
11
84.62
21
-130.1
0
LINE
8
FFab
62
5
10
93.525
20
-131.85
11
93.525
21
-135.75
0
LINE
8
FFab
62
5
10
84.875
20
-134.775
11
84.875
21
-131.85
0
LINE
8
FFab
62
5
10
85.85
20
-135.75
11
84.875
21
-134.775
0
LINE
8
FFab
62
5
10
84.875
20
-131.85
11
93.525
21
-131.85
0
LINE
8
FFab
62
5
10
93.525
20
-135.75
11
85.85
21
-135.75
0
LINE
8
FCrtYd
62
7
10
49.14
20
-122.31
11
54.6
21
-122.31
0
LINE
8
FCrtYd
62
7
10
49.14
20
-122.31
11
49.14
21
-127.05
0
LINE
8
FCrtYd
62
7
10
54.6
20
-127.05
11
54.6
21
-122.31
0
LINE
8
FCrtYd
62
7
10
54.6
20
-127.05
11
49.14
21
-127.05
0
LINE
8
FFab
62
5
10
50.1
20
-126.79
11
53.6
21
-126.79
0
ARC
8
FFab
62
5
10
50.116375
20
-126.793625
30
0
40
2.755629
50
99.97999
51
101.24999
0
ARC
8
FFab
62
5
10
51.87
20
-122.56
30
0
40
2.755628
50
-36.773626
51
-33.750001
0
LINE
8
FCrtYd
62
7
10
85.4
20
-147.3
11
85.4
21
-143.7
0
LINE
8
FCrtYd
62
7
10
64.05
20
-147.3
11
85.4
21
-147.3
0
LINE
8
FCrtYd
62
7
10
64.05
20
-143.7
11
64.05
21
-147.3
0
LINE
8
FCrtYd
62
7
10
85.4
20
-143.7
11
64.05
21
-143.7
0
LINE
8
FFab
62
5
10
84.87
20
-146.77
11
64.55
21
-146.77
0
LINE
8
FFab
62
5
10
84.87
20
-144.865
11
84.87
21
-146.77
0
LINE
8
FFab
62
5
10
64.55
20
-146.77
11
64.55
21
-144.23
0
LINE
8
FFab
62
5
10
84.235
20
-144.23
11
84.87
21
-144.865
0
LINE
8
FFab
62
5
10
64.55
20
-144.23
11
84.235
21
-144.23
0
LINE
8
FCrtYd
62
7
10
44.38
20
-122.239
11
47.93
21
-122.239
0
LINE
8
FCrtYd
62
7
10
47.93
20
-130.889
11
44.38
21
-130.889
0
LINE
8
FCrtYd
62
7
10
47.93
20
-122.239
11
47.93
21
-130.889
0
LINE
8
FCrtYd
62
7
10
44.38
20
-130.889
11
44.38
21
-122.239
0
LINE
8
FFab
62
5
10
44.91
20
-122.769
11
46.815
21
-122.769
0
LINE
8
FFab
62
5
10
44.91
20
-130.389
11
44.91
21
-122.769
0
LINE
8
FFab
62
5
10
47.45
20
-130.389
11
44.91
21
-130.389
0
LINE
8
FFab
62
5
10
47.45
20
-123.404
11
47.45
21
-130.389
0
LINE
8
FFab
62
5
10
46.815
20
-122.769
11
47.45
21
-123.404
0
LINE
8
FCrtYd
62
7
10
43.612
20
-130.889
11
40.062
21
-130.889
0
LINE
8
FCrtYd
62
7
10
40.062
20
-130.889
11
40.062
21
-122.239
0
LINE
8
FCrtYd
62
7
10
40.062
20
-122.239
11
43.612
21
-122.239
0
LINE
8
FCrtYd
62
7
10
43.612
20
-122.239
11
43.612
21
-130.889
0
LINE
8
FFab
62
5
10
43.132
20
-130.389
11
40.592
21
-130.389
0
LINE
8
FFab
62
5
10
40.592
20
-122.769
11
42.497
21
-122.769
0
LINE
8
FFab
62
5
10
42.497
20
-122.769
11
43.132
21
-123.404
0
LINE
8
FFab
62
5
10
40.592
20
-130.389
11
40.592
21
-122.769
0
LINE
8
FFab
62
5
10
43.132
20
-123.404
11
43.132
21
-130.389
0
CIRCLE
8
Cmts
62
1
10
51.87
20
-145.46
40
3.2
0
CIRCLE
8
FCrtYd
62
7
10
51.87
20
-145.46
40
3.45
0
CIRCLE
8
Cmts
62
1
10
103.94
20
-112.44
40
3.2
0
CIRCLE
8
FCrtYd
62
7
10
103.94
20
-112.44
40
3.45
0
CIRCLE
8
Cmts
62
1
10
103.94
20
-140.38
40
3.2
0
CIRCLE
8
FCrtYd
62
7
10
103.94
20
-140.38
40
3.45
0
LINE
8
FCrtYd
62
7
10
70.363
20
-120.199
11
70.363
21
-124.039
0
LINE
8
FCrtYd
62
7
10
70.363
20
-124.039
11
73.763
21
-124.039
0
LINE
8
FCrtYd
62
7
10
73.763
20
-120.199
11
70.363
21
-120.199
0
LINE
8
FCrtYd
62
7
10
73.763
20
-124.039
11
73.763
21
-120.199
0
LINE
8
FFab
62
5
10
73.513
20
-121.469
11
73.513
21
-122.769
0
LINE
8
FFab
62
5
10
70.613
20
-122.444
11
70.613
21
-121.469
0
LINE
8
FFab
62
5
10
70.938
20
-122.769
11
70.613
21
-122.444
0
LINE
8
FFab
62
5
10
73.513
20
-122.769
11
70.938
21
-122.769
0
LINE
8
FFab
62
5
10
70.613
20
-121.469
11
73.513
21
-121.469
0
CIRCLE
8
FCrtYd
62
7
10
43.0816
20
-144.1408
40
1.25
0
CIRCLE
8
FFab
62
5
10
43.0816
20
-144.1408
40
1.0
0
LINE
8
FCrtYd
62
7
10
74.167
20
-129.0976
11
70.467
21
-129.0976
0
LINE
8
FCrtYd
62
7
10
70.467
20
-127.1976
11
74.167
21
-127.1976
0
LINE
8
FCrtYd
62
7
10
74.167
20
-127.1976
11
74.167
21
-129.0976
0
LINE
8
FCrtYd
62
7
10
70.467
20
-129.0976
11
70.467
21
-127.1976
0
LINE
8
FFab
62
5
10
71.317
20
-128.7726
11
71.317
21
-127.5226
0
LINE
8
FFab
62
5
10
73.317
20
-127.5226
11
73.317
21
-128.7726
0
LINE
8
FFab
62
5
10
71.317
20
-127.5226
11
73.317
21
-127.5226
0
LINE
8
FFab
62
5
10
73.317
20
-128.7726
11
71.317
21
-128.7726
0
LINE
8
FCrtYd
62
7
10
89.6032
20
-125.0276
11
89.6032
21
-121.2676
0
LINE
8
FCrtYd
62
7
10
91.5632
20
-121.2676
11
91.5632
21
-125.0276
0
LINE
8
FCrtYd
62
7
10
89.6032
20
-121.2676
11
91.5632
21
-121.2676
0
LINE
8
FCrtYd
62
7
10
91.5632
20
-125.0276
11
89.6032
21
-125.0276
0
LINE
8
FFab
62
5
10
91.2082
20
-122.1476
11
91.2082
21
-124.1476
0
LINE
8
FFab
62
5
10
89.9582
20
-124.1476
11
89.9582
21
-122.1476
0
LINE
8
FFab
62
5
10
89.9582
20
-122.1476
11
91.2082
21
-122.1476
0
LINE
8
FFab
62
5
10
91.2082
20
-124.1476
11
89.9582
21
-124.1476
0
LINE
8
FCrtYd
62
7
10
69.338372
20
-127.977531
11
69.338372
21
-124.137531
0
LINE
8
FCrtYd
62
7
10
65.938372
20
-124.137531
11
65.938372
21
-127.977531
0
LINE
8
FCrtYd
62
7
10
69.338372
20
-124.137531
11
65.938372
21
-124.137531
0
LINE
8
FCrtYd
62
7
10
65.938372
20
-127.977531
11
69.338372
21
-127.977531
0
LINE
8
FFab
62
5
10
66.188372
20
-125.407531
11
68.763372
21
-125.407531
0
LINE
8
FFab
62
5
10
69.088372
20
-126.707531
11
66.188372
21
-126.707531
0
LINE
8
FFab
62
5
10
68.763372
20
-125.407531
11
69.088372
21
-125.732531
0
LINE
8
FFab
62
5
10
66.188372
20
-126.707531
11
66.188372
21
-125.407531
0
LINE
8
FFab
62
5
10
69.088372
20
-125.732531
11
69.088372
21
-126.707531
0
LINE
8
FCrtYd
62
7
10
113.3676
20
-91.1716
11
117.0676
21
-91.1716
0
LINE
8
FCrtYd
62
7
10
113.3676
20
-93.0716
11
113.3676
21
-91.1716
0
LINE
8
FCrtYd
62
7
10
117.0676
20
-91.1716
11
117.0676
21
-93.0716
0
LINE
8
FCrtYd
62
7
10
117.0676
20
-93.0716
11
113.3676
21
-93.0716
0
LINE
8
FFab
62
5
10
114.2176
20
-91.4966
11
116.2176
21
-91.4966
0
LINE
8
FFab
62
5
10
116.2176
20
-91.4966
11
116.2176
21
-92.7466
0
LINE
8
FFab
62
5
10
116.2176
20
-92.7466
11
114.2176
21
-92.7466
0
LINE
8
FFab
62
5
10
114.2176
20
-92.7466
11
114.2176
21
-91.4966
0
LINE
8
FCrtYd
62
7
10
91.887
20
-122.6862
11
93.787
21
-122.6862
0
LINE
8
FCrtYd
62
7
10
91.887
20
-126.3862
11
91.887
21
-122.6862
0
LINE
8
FCrtYd
62
7
10
93.787
20
-126.3862
11
91.887
21
-126.3862
0
LINE
8
FCrtYd
62
7
10
93.787
20
-122.6862
11
93.787
21
-126.3862
0
LINE
8
FFab
62
5
10
92.212
20
-123.5362
11
93.462
21
-123.5362
0
LINE
8
FFab
62
5
10
93.462
20
-123.5362
11
93.462
21
-125.5362
0
LINE
8
FFab
62
5
10
92.212
20
-125.5362
11
92.212
21
-123.5362
0
LINE
8
FFab
62
5
10
93.462
20
-125.5362
11
92.212
21
-125.5362
0
LINE
8
FCrtYd
62
7
10
68.0092
20
-120.1928
11
68.0092
21
-123.8928
0
LINE
8
FCrtYd
62
7
10
68.0092
20
-123.8928
11
66.1092
21
-123.8928
0
LINE
8
FCrtYd
62
7
10
66.1092
20
-123.8928
11
66.1092
21
-120.1928
0
LINE
8
FCrtYd
62
7
10
66.1092
20
-120.1928
11
68.0092
21
-120.1928
0
LINE
8
FFab
62
5
10
67.6842
20
-121.0428
11
67.6842
21
-123.0428
0
LINE
8
FFab
62
5
10
66.4342
20
-123.0428
11
66.4342
21
-121.0428
0
LINE
8
FFab
62
5
10
67.6842
20
-123.0428
11
66.4342
21
-123.0428
0
LINE
8
FFab
62
5
10
66.4342
20
-121.0428
11
67.6842
21
-121.0428
0
LINE
8
FCrtYd
62
7
10
94.0132
20
-138.8226
11
94.0132
21
-133.6726
0
LINE
8
FCrtYd
62
7
10
94.0132
20
-133.6726
11
97.3532
21
-133.6726
0
LINE
8
FCrtYd
62
7
10
97.3532
20
-133.6726
11
97.3532
21
-138.8226
0
LINE
8
FCrtYd
62
7
10
97.3532
20
-138.8226
11
94.0132
21
-138.8226
0
LINE
8
FFab
62
5
10
95.9082
20
-134.9026
11
96.4832
21
-135.4776
0
LINE
8
FFab
62
5
10
94.8832
20
-134.9026
11
96.4832
21
-134.9026
0
LINE
8
FFab
62
5
10
96.4832
20
-137.5926
11
94.8832
21
-137.5926
0
LINE
8
FFab
62
5
10
94.8832
20
-137.5926
11
94.8832
21
-134.9026
0
LINE
8
FFab
62
5
10
96.4832
20
-134.9026
11
96.4832
21
-137.5926
0
LINE
8
FCrtYd
62
7
10
70.2832
20
-139.3476
11
70.2832
21
-133.3476
0
LINE
8
FCrtYd
62
7
10
76.6832
20
-139.3476
11
70.2832
21
-139.3476
0
LINE
8
FCrtYd
62
7
10
70.2832
20
-133.3476
11
76.6832
21
-133.3476
0
LINE
8
FCrtYd
62
7
10
76.6832
20
-133.3476
11
76.6832
21
-139.3476
0
LINE
8
FFab
62
5
10
71.6832
20
-136.3476
11
71.6832
21
-136.3476
0
LINE
8
FFab
62
5
10
75.6832
20
-136.3476
11
75.6832
21
-136.3476
0
ARC
8
FFab
62
5
10
71.6832
20
-136.3476
30
0
40
2.828427
50
-79.380345
51
-82.080345
0
ARC
8
FFab
62
5
10
75.6832
20
-136.3476
30
0
40
2.828427
50
166.75948
51
168.05948
0
LINE
8
FCrtYd
62
7
10
105.719
20
-91.5568
11
109.419
21
-91.5568
0
LINE
8
FCrtYd
62
7
10
105.719
20
-93.4568
11
105.719
21
-91.5568
0
LINE
8
FCrtYd
62
7
10
109.419
20
-91.5568
11
109.419
21
-93.4568
0
LINE
8
FCrtYd
62
7
10
109.419
20
-93.4568
11
105.719
21
-93.4568
0
LINE
8
FFab
62
5
10
108.569
20
-91.8818
11
108.569
21
-93.1318
0
LINE
8
FFab
62
5
10
106.569
20
-91.8818
11
108.569
21
-91.8818
0
LINE
8
FFab
62
5
10
108.569
20
-93.1318
11
106.569
21
-93.1318
0
LINE
8
FFab
62
5
10
106.569
20
-93.1318
11
106.569
21
-91.8818
0
LINE
8
FCrtYd
62
7
10
102.7134
20
-93.3856
11
102.7134
21
-95.2856
0
LINE
8
FCrtYd
62
7
10
102.7134
20
-95.2856
11
99.0134
21
-95.2856
0
LINE
8
FCrtYd
62
7
10
99.0134
20
-95.2856
11
99.0134
21
-93.3856
0
LINE
8
FCrtYd
62
7
10
99.0134
20
-93.3856
11
102.7134
21
-93.3856
0
LINE
8
FFab
62
5
10
101.8634
20
-93.7106
11
101.8634
21
-94.9606
0
LINE
8
FFab
62
5
10
99.8634
20
-93.7106
11
101.8634
21
-93.7106
0
LINE
8
FFab
62
5
10
101.8634
20
-94.9606
11
99.8634
21
-94.9606
0
LINE
8
FFab
62
5
10
99.8634
20
-94.9606
11
99.8634
21
-93.7106
0
LINE
8
FCrtYd
62
7
10
91.5908
20
-91.3418
11
91.5908
21
-94.9418
0
LINE
8
FCrtYd
62
7
10
97.7408
20
-94.9418
11
97.7408
21
-91.3418
0
LINE
8
FCrtYd
62
7
10
91.5908
20
-94.9418
11
97.7408
21
-94.9418
0
LINE
8
FCrtYd
62
7
10
97.7408
20
-91.3418
11
91.5908
21
-91.3418
0
LINE
8
FFab
62
5
10
92.1208
20
-91.8718
11
97.2008
21
-91.8718
0
LINE
8
FFab
62
5
10
92.7558
20
-94.4118
11
92.1208
21
-93.7768
0
LINE
8
FFab
62
5
10
97.2008
20
-91.8718
11
97.2008
21
-94.4118
0
LINE
8
FFab
62
5
10
97.2008
20
-94.4118
11
92.7558
21
-94.4118
0
LINE
8
FFab
62
5
10
92.1208
20
-93.7768
11
92.1208
21
-91.8718
0
CIRCLE
8
FCrtYd
62
7
10
46.1296
20
-93.1376
40
1.25
0
CIRCLE
8
FFab
62
5
10
46.1296
20
-93.1376
40
1.0
0
CIRCLE
8
FCrtYd
62
7
10
109.4772
20
-142.7184
40
1.25
0
CIRCLE
8
FFab
62
5
10
109.4772
20
-142.7184
40
1.0
0
LINE
8
FCrtYd
62
7
10
99.4332
20
-110.2476
11
99.6832
21
-110.2476
0
LINE
8
FCrtYd
62
7
10
90.4332
20
-102.7476
11
99.4332
21
-102.7476
0
LINE
8
FCrtYd
62
7
10
99.4332
20
-102.7476
11
99.6832
21
-102.7476
0
LINE
8
FCrtYd
62
7
10
90.1832
20
-110.2476
11
90.4332
21
-110.2476
0
LINE
8
FCrtYd
62
7
10
99.6832
20
-102.9976
11
99.6832
21
-109.9976
0
LINE
8
FCrtYd
62
7
10
99.4332
20
-110.2476
11
90.4332
21
-110.2476
0
LINE
8
FCrtYd
62
7
10
90.1832
20
-109.9976
11
90.1832
21
-102.9976
0
LINE
8
FCrtYd
62
7
10
90.1832
20
-109.9976
11
90.1832
21
-110.2476
0
LINE
8
FCrtYd
62
7
10
99.6832
20
-110.2476
11
99.6832
21
-109.9976
0
LINE
8
FCrtYd
62
7
10
90.1832
20
-102.9976
11
90.1832
21
-102.7476
0
LINE
8
FCrtYd
62
7
10
90.1832
20
-102.7476
11
90.4332
21
-102.7476
0
LINE
8
FCrtYd
62
7
10
99.6832
20
-102.7476
11
99.6832
21
-102.9976
0
LINE
8
FFab
62
5
10
91.9332
20
-103.4976
11
94.9332
21
-103.4976
0
LINE
8
FFab
62
5
10
94.9332
20
-103.4976
11
97.9332
21
-103.4976
0
LINE
8
FFab
62
5
10
97.9332
20
-103.4976
11
97.9332
21
-109.4976
0
LINE
8
FFab
62
5
10
91.9332
20
-109.4976
11
91.9332
21
-103.4976
0
LINE
8
FFab
62
5
10
97.9332
20
-109.4976
11
91.9332
21
-109.4976
0
CIRCLE
8
FFab
62
5
10
94.9332
20
-106.4976
40
2.015564
0
LINE
8
FCrtYd
62
7
10
56.360628
20
-123.967469
11
56.360628
21
-120.267469
0
LINE
8
FCrtYd
62
7
10
58.260628
20
-120.267469
11
58.260628
21
-123.967469
0
LINE
8
FCrtYd
62
7
10
58.260628
20
-123.967469
11
56.360628
21
-123.967469
0
LINE
8
FCrtYd
62
7
10
56.360628
20
-120.267469
11
58.260628
21
-120.267469
0
LINE
8
FFab
62
5
10
56.685628
20
-121.117469
11
57.935628
21
-121.117469
0
LINE
8
FFab
62
5
10
56.685628
20
-123.117469
11
56.685628
21
-121.117469
0
LINE
8
FFab
62
5
10
57.935628
20
-123.117469
11
56.685628
21
-123.117469
0
LINE
8
FFab
62
5
10
57.935628
20
-121.117469
11
57.935628
21
-123.117469
0
LINE
8
FCrtYd
62
7
10
100.0332
20
-140.2476
11
100.0332
21
-144.2476
0
LINE
8
FCrtYd
62
7
10
100.0332
20
-144.2476
11
97.7332
21
-144.2476
0
LINE
8
FCrtYd
62
7
10
97.7332
20
-140.2476
11
100.0332
21
-140.2476
0
LINE
8
FCrtYd
62
7
10
97.7332
20
-144.2476
11
97.7332
21
-140.2476
0
LINE
8
FFab
62
5
10
99.5332
20
-143.0976
11
98.2332
21
-143.0976
0
LINE
8
FFab
62
5
10
98.2332
20
-141.3976
11
99.5332
21
-141.3976
0
LINE
8
FFab
62
5
10
99.5332
20
-141.3976
11
99.5332
21
-143.0976
0
LINE
8
FFab
62
5
10
98.7832
20
-143.0976
11
98.2332
21
-142.5476
0
LINE
8
FFab
62
5
10
98.2332
20
-143.0976
11
98.2332
21
-141.3976
0
LINE
8
FCrtYd
62
7
10
115.6582
20
-99.6026
11
104.4882
21
-99.6026
0
LINE
8
FCrtYd
62
7
10
104.4882
20
-93.9126
11
115.6582
21
-93.9126
0
LINE
8
FCrtYd
62
7
10
104.4882
20
-99.6026
11
104.4882
21
-93.9126
0
LINE
8
FCrtYd
62
7
10
115.6582
20
-93.9126
11
115.6582
21
-99.6026
0
LINE
8
FFab
62
5
10
115.4082
20
-94.4026
11
115.4082
21
-99.3526
0
LINE
8
FFab
62
5
10
104.7382
20
-94.4026
11
115.4082
21
-94.4026
0
LINE
8
FFab
62
5
10
115.4082
20
-99.3526
11
104.7382
21
-99.3526
0
LINE
8
FFab
62
5
10
104.7382
20
-99.3526
11
104.7382
21
-94.4026
0
LINE
8
FCrtYd
62
7
10
59.539
20
-124.517
11
56.139
21
-124.517
0
LINE
8
FCrtYd
62
7
10
59.539
20
-128.357
11
59.539
21
-124.517
0
LINE
8
FCrtYd
62
7
10
56.139
20
-124.517
11
56.139
21
-128.357
0
LINE
8
FCrtYd
62
7
10
56.139
20
-128.357
11
59.539
21
-128.357
0
LINE
8
FFab
62
5
10
58.964
20
-125.787
11
59.289
21
-126.112
0
LINE
8
FFab
62
5
10
56.389
20
-125.787
11
58.964
21
-125.787
0
LINE
8
FFab
62
5
10
56.389
20
-127.087
11
56.389
21
-125.787
0
LINE
8
FFab
62
5
10
59.289
20
-127.087
11
56.389
21
-127.087
0
LINE
8
FFab
62
5
10
59.289
20
-126.112
11
59.289
21
-127.087
0
LINE
8
FCrtYd
62
7
10
61.334
20
-123.826
11
61.334
21
-120.126
0
LINE
8
FCrtYd
62
7
10
63.234
20
-123.826
11
61.334
21
-123.826
0
LINE
8
FCrtYd
62
7
10
61.334
20
-120.126
11
63.234
21
-120.126
0
LINE
8
FCrtYd
62
7
10
63.234
20
-120.126
11
63.234
21
-123.826
0
LINE
8
FFab
62
5
10
61.659
20
-120.976
11
62.909
21
-120.976
0
LINE
8
FFab
62
5
10
61.659
20
-122.976
11
61.659
21
-120.976
0
LINE
8
FFab
62
5
10
62.909
20
-120.976
11
62.909
21
-122.976
0
LINE
8
FFab
62
5
10
62.909
20
-122.976
11
61.659
21
-122.976
0
LINE
8
BCrtYd
62
8
10
34.6782
20
-77.1726
11
48.0132
21
-77.1726
0
LINE
8
BCrtYd
62
8
10
34.6782
20
-68.2826
11
48.0132
21
-68.2826
0
LINE
8
BCrtYd
62
8
10
48.0132
20
-68.2826
11
48.0132
21
-77.1726
0
LINE
8
BCrtYd
62
8
10
34.6782
20
-68.2826
11
34.6782
21
-77.1726
0
LINE
8
FCrtYd
62
7
10
98.7848
20
-91.3028
11
102.4848
21
-91.3028
0
LINE
8
FCrtYd
62
7
10
102.4848
20
-93.2028
11
98.7848
21
-93.2028
0
LINE
8
FCrtYd
62
7
10
98.7848
20
-93.2028
11
98.7848
21
-91.3028
0
LINE
8
FCrtYd
62
7
10
102.4848
20
-91.3028
11
102.4848
21
-93.2028
0
LINE
8
FFab
62
5
10
99.6348
20
-92.8778
11
99.6348
21
-91.6278
0
LINE
8
FFab
62
5
10
101.6348
20
-92.8778
11
99.6348
21
-92.8778
0
LINE
8
FFab
62
5
10
101.6348
20
-91.6278
11
101.6348
21
-92.8778
0
LINE
8
FFab
62
5
10
99.6348
20
-91.6278
11
101.6348
21
-91.6278
0
CIRCLE
8
Cmts
62
1
10
53.14
20
-97.2
40
3.2
0
CIRCLE
8
FCrtYd
62
7
10
53.14
20
-97.2
40
3.45
0
LINE
8
FCrtYd
62
7
10
89.386
20
-102.744
11
89.386
21
-109.744
0
LINE
8
FCrtYd
62
7
10
79.886
20
-109.744
11
79.886
21
-102.744
0
LINE
8
FCrtYd
62
7
10
89.136
20
-109.994
11
89.386
21
-109.994
0
LINE
8
FCrtYd
62
7
10
79.886
20
-109.744
11
79.886
21
-109.994
0
LINE
8
FCrtYd
62
7
10
79.886
20
-109.994
11
80.136
21
-109.994
0
LINE
8
FCrtYd
62
7
10
89.136
20
-109.994
11
80.136
21
-109.994
0
LINE
8
FCrtYd
62
7
10
89.136
20
-102.494
11
89.386
21
-102.494
0
LINE
8
FCrtYd
62
7
10
79.886
20
-102.494
11
80.136
21
-102.494
0
LINE
8
FCrtYd
62
7
10
80.136
20
-102.494
11
89.136
21
-102.494
0
LINE
8
FCrtYd
62
7
10
89.386
20
-109.994
11
89.386
21
-109.744
0
LINE
8
FCrtYd
62
7
10
89.386
20
-102.494
11
89.386
21
-102.744
0
LINE
8
FCrtYd
62
7
10
79.886
20
-102.744
11
79.886
21
-102.494
0
LINE
8
FFab
62
5
10
87.636
20
-109.244
11
81.636
21
-109.244
0
LINE
8
FFab
62
5
10
87.636
20
-103.244
11
87.636
21
-109.244
0
LINE
8
FFab
62
5
10
84.636
20
-103.244
11
87.636
21
-103.244
0
LINE
8
FFab
62
5
10
81.636
20
-109.244
11
81.636
21
-103.244
0
LINE
8
FFab
62
5
10
81.636
20
-103.244
11
84.636
21
-103.244
0
CIRCLE
8
FFab
62
5
10
84.636
20
-106.244
40
2.015564
0
LINE
8
FCrtYd
62
7
10
118.8552
20
-96.1656
11
118.8552
21
-93.6656
0
LINE
8
FCrtYd
62
7
10
116.3552
20
-93.6656
11
118.8552
21
-93.6656
0
LINE
8
FCrtYd
62
7
10
116.3552
20
-93.6656
11
116.3552
21
-96.1656
0
LINE
8
FCrtYd
62
7
10
118.8552
20
-96.1656
11
116.3552
21
-96.1656
0
LINE
8
FCrtYd
62
7
10
99.8132
20
-131.1726
11
103.1532
21
-131.1726
0
LINE
8
FCrtYd
62
7
10
99.8132
20
-136.3226
11
99.8132
21
-131.1726
0
LINE
8
FCrtYd
62
7
10
103.1532
20
-136.3226
11
99.8132
21
-136.3226
0
LINE
8
FCrtYd
62
7
10
103.1532
20
-131.1726
11
103.1532
21
-136.3226
0
LINE
8
FFab
62
5
10
102.2832
20
-135.0926
11
100.6832
21
-135.0926
0
LINE
8
FFab
62
5
10
101.7082
20
-132.4026
11
102.2832
21
-132.9776
0
LINE
8
FFab
62
5
10
100.6832
20
-132.4026
11
102.2832
21
-132.4026
0
LINE
8
FFab
62
5
10
100.6832
20
-135.0926
11
100.6832
21
-132.4026
0
LINE
8
FFab
62
5
10
102.2832
20
-132.4026
11
102.2832
21
-135.0926
0
LINE
8
FCrtYd
62
7
10
95.1832
20
-121.1476
11
102.5832
21
-121.1476
0
LINE
8
FCrtYd
62
7
10
102.5832
20
-121.1476
11
102.5832
21
-126.9476
0
LINE
8
FCrtYd
62
7
10
102.5832
20
-126.9476
11
95.1832
21
-126.9476
0
LINE
8
FCrtYd
62
7
10
95.1832
20
-126.9476
11
95.1832
21
-121.1476
0
LINE
8
FFab
62
5
10
101.7582
20
-121.5476
11
101.7582
21
-126.5476
0
LINE
8
FFab
62
5
10
96.0082
20
-121.5476
11
101.7582
21
-121.5476
0
LINE
8
FFab
62
5
10
101.7582
20
-126.5476
11
96.0082
21
-126.5476
0
LINE
8
FFab
62
5
10
96.0082
20
-126.5476
11
96.0082
21
-121.5476
0
LINE
8
FCrtYd
62
7
10
100.9832
20
-117.8476
11
100.0832
21
-117.8476
0
LINE
8
FCrtYd
62
7
10
100.0832
20
-117.8476
11
100.0832
21
-120.7476
0
LINE
8
FCrtYd
62
7
10
90.3832
20
-117.8476
11
91.2832
21
-117.8476
0
LINE
8
FCrtYd
62
7
10
100.0832
20
-111.9476
11
100.0832
21
-114.8476
0
LINE
8
FCrtYd
62
7
10
91.2832
20
-113.0976
11
92.4332
21
-111.9476
0
LINE
8
FCrtYd
62
7
10
91.2832
20
-119.5976
11
92.4332
21
-120.7476
0
LINE
8
FCrtYd
62
7
10
90.3832
20
-114.8476
11
90.3832
21
-117.8476
0
LINE
8
FCrtYd
62
7
10
91.2832
20
-117.8476
11
91.2832
21
-119.5976
0
LINE
8
FCrtYd
62
7
10
92.4332
20
-120.7476
11
100.0832
21
-120.7476
0
LINE
8
FCrtYd
62
7
10
100.0832
20
-114.8476
11
100.9832
21
-114.8476
0
LINE
8
FCrtYd
62
7
10
91.2832
20
-113.0976
11
91.2832
21
-114.8476
0
LINE
8
FCrtYd
62
7
10
91.2832
20
-114.8476
11
90.3832
21
-114.8476
0
LINE
8
FCrtYd
62
7
10
92.4332
20
-111.9476
11
100.0832
21
-111.9476
0
LINE
8
FCrtYd
62
7
10
100.9832
20
-114.8476
11
100.9832
21
-117.8476
0
LINE
8
FFab
62
5
10
92.520922
20
-114.4476
11
92.520922
21
-115.2476
0
LINE
8
FFab
62
5
10
99.8332
20
-112.1976
11
99.8332
21
-120.4976
0
LINE
8
FFab
62
5
10
91.5332
20
-113.1976
11
91.5332
21
-119.4976
0
LINE
8
FFab
62
5
10
91.5332
20
-113.1976
11
92.5332
21
-112.1976
0
LINE
8
FFab
62
5
10
92.5332
20
-120.4976
11
99.8332
21
-120.4976
0
LINE
8
FFab
62
5
10
91.5332
20
-119.4976
11
92.5332
21
-120.4976
0
LINE
8
FFab
62
5
10
92.5332
20
-112.1976
11
99.8332
21
-112.1976
0
LINE
8
FFab
62
5
10
92.120922
20
-114.8476
11
92.920922
21
-114.8476
0
CIRCLE
8
FFab
62
5
10
95.6832
20
-116.3476
40
4.0
0
LINE
8
FCrtYd
62
7
10
76.9332
20
-114.8476
11
89.2332
21
-114.8476
0
LINE
8
FCrtYd
62
7
10
76.9332
20
-123.8976
11
76.9332
21
-114.8476
0
LINE
8
FCrtYd
62
7
10
89.2332
20
-123.8976
11
76.9332
21
-123.8976
0
LINE
8
FCrtYd
62
7
10
89.2332
20
-114.8476
11
89.2332
21
-123.8976
0
LINE
8
FFab
62
5
10
88.2332
20
-121.8476
11
88.2332
21
-117.0476
0
LINE
8
FFab
62
5
10
88.2332
20
-117.0476
11
77.9332
21
-117.0476
0
LINE
8
FFab
62
5
10
77.9332
20
-117.0476
11
77.9332
21
-121.8476
0
LINE
8
FFab
62
5
10
77.9332
20
-121.8476
11
88.2332
21
-121.8476
0
LINE
8
FCrtYd
62
7
10
113.9624
20
-139.162
11
113.9624
21
-142.922
0
LINE
8
FCrtYd
62
7
10
112.0024
20
-139.162
11
113.9624
21
-139.162
0
LINE
8
FCrtYd
62
7
10
112.0024
20
-142.922
11
112.0024
21
-139.162
0
LINE
8
FCrtYd
62
7
10
113.9624
20
-142.922
11
112.0024
21
-142.922
0
LINE
8
FFab
62
5
10
112.3574
20
-140.042
11
113.6074
21
-140.042
0
LINE
8
FFab
62
5
10
113.6074
20
-140.042
11
113.6074
21
-142.042
0
LINE
8
FFab
62
5
10
112.3574
20
-142.042
11
112.3574
21
-140.042
0
LINE
8
FFab
62
5
10
113.6074
20
-142.042
11
112.3574
21
-142.042
0
LINE
8
FCrtYd
62
7
10
64.639372
20
-124.232531
11
61.239372
21
-124.232531
0
LINE
8
FCrtYd
62
7
10
64.639372
20
-128.072531
11
64.639372
21
-124.232531
0
LINE
8
FCrtYd
62
7
10
61.239372
20
-124.232531
11
61.239372
21
-128.072531
0
LINE
8
FCrtYd
62
7
10
61.239372
20
-128.072531
11
64.639372
21
-128.072531
0
LINE
8
FFab
62
5
10
61.489372
20
-126.802531
11
61.489372
21
-125.502531
0
LINE
8
FFab
62
5
10
64.389372
20
-126.802531
11
61.489372
21
-126.802531
0
LINE
8
FFab
62
5
10
64.064372
20
-125.502531
11
64.389372
21
-125.827531
0
LINE
8
FFab
62
5
10
64.389372
20
-125.827531
11
64.389372
21
-126.802531
0
LINE
8
FFab
62
5
10
61.489372
20
-125.502531
11
64.064372
21
-125.502531
0
LINE
8
FCrtYd
62
7
10
84.5048
20
-140.9048
11
84.5048
21
-142.8048
0
LINE
8
FCrtYd
62
7
10
84.5048
20
-142.8048
11
80.8048
21
-142.8048
0
LINE
8
FCrtYd
62
7
10
80.8048
20
-142.8048
11
80.8048
21
-140.9048
0
LINE
8
FCrtYd
62
7
10
80.8048
20
-140.9048
11
84.5048
21
-140.9048
0
LINE
8
FFab
62
5
10
83.6548
20
-141.2298
11
83.6548
21
-142.4798
0
LINE
8
FFab
62
5
10
83.6548
20
-142.4798
11
81.6548
21
-142.4798
0
LINE
8
FFab
62
5
10
81.6548
20
-141.2298
11
83.6548
21
-141.2298
0
LINE
8
FFab
62
5
10
81.6548
20
-142.4798
11
81.6548
21
-141.2298
0
LINE
8
FCrtYd
62
7
10
70.6332
20
-124.3976
11
74.3332
21
-124.3976
0
LINE
8
FCrtYd
62
7
10
70.6332
20
-126.2976
11
70.6332
21
-124.3976
0
LINE
8
FCrtYd
62
7
10
74.3332
20
-126.2976
11
70.6332
21
-126.2976
0
LINE
8
FCrtYd
62
7
10
74.3332
20
-124.3976
11
74.3332
21
-126.2976
0
LINE
8
FFab
62
5
10
73.4832
20
-125.9726
11
71.4832
21
-125.9726
0
LINE
8
FFab
62
5
10
73.4832
20
-124.7226
11
73.4832
21
-125.9726
0
LINE
8
FFab
62
5
10
71.4832
20
-124.7226
11
73.4832
21
-124.7226
0
LINE
8
FFab
62
5
10
71.4832
20
-125.9726
11
71.4832
21
-124.7226
0
LINE
8
FCrtYd
62
7
10
112.4024
20
-146.056
11
112.4024
21
-144.156
0
LINE
8
FCrtYd
62
7
10
112.4024
20
-144.156
11
116.1024
21
-144.156
0
LINE
8
FCrtYd
62
7
10
116.1024
20
-144.156
11
116.1024
21
-146.056
0
LINE
8
FCrtYd
62
7
10
116.1024
20
-146.056
11
112.4024
21
-146.056
0
LINE
8
FFab
62
5
10
115.2524
20
-145.731
11
113.2524
21
-145.731
0
LINE
8
FFab
62
5
10
115.2524
20
-144.481
11
115.2524
21
-145.731
0
LINE
8
FFab
62
5
10
113.2524
20
-144.481
11
115.2524
21
-144.481
0
LINE
8
FFab
62
5
10
113.2524
20
-145.731
11
113.2524
21
-144.481
0
LINE
8
FCrtYd
62
7
10
89.3332
20
-91.9976
11
89.3332
21
-95.6976
0
LINE
8
FCrtYd
62
7
10
89.3332
20
-95.6976
11
87.4332
21
-95.6976
0
LINE
8
FCrtYd
62
7
10
87.4332
20
-95.6976
11
87.4332
21
-91.9976
0
LINE
8
FCrtYd
62
7
10
87.4332
20
-91.9976
11
89.3332
21
-91.9976
0
LINE
8
FFab
62
5
10
89.0082
20
-92.8476
11
89.0082
21
-94.8476
0
LINE
8
FFab
62
5
10
89.0082
20
-94.8476
11
87.7582
21
-94.8476
0
LINE
8
FFab
62
5
10
87.7582
20
-94.8476
11
87.7582
21
-92.8476
0
LINE
8
FFab
62
5
10
87.7582
20
-92.8476
11
89.0082
21
-92.8476
0
LINE
8
BCrtYd
62
8
10
119.9132
20
-97.6568
11
119.9132
21
-121.5568
0
LINE
8
BCrtYd
62
8
10
116.3132
20
-121.5568
11
116.3132
21
-97.6568
0
LINE
8
BCrtYd
62
8
10
119.9132
20
-121.5568
11
116.3132
21
-121.5568
0
LINE
8
BCrtYd
62
8
10
116.3132
20
-97.6568
11
119.9132
21
-97.6568
0
LINE
8
BFab
62
6
10
117.4782
20
-121.0268
11
119.3832
21
-121.0268
0
LINE
8
BFab
62
6
10
116.8432
20
-98.1668
11
116.8432
21
-120.3918
0
LINE
8
BFab
62
6
10
119.3832
20
-98.1668
11
116.8432
21
-98.1668
0
LINE
8
BFab
62
6
10
116.8432
20
-120.3918
11
117.4782
21
-121.0268
0
LINE
8
BFab
62
6
10
119.3832
20
-121.0268
11
119.3832
21
-98.1668
0
LINE
8
BCrtYd
62
8
10
116.4148
20
-122.4372
11
120.0148
21
-122.4372
0
LINE
8
BCrtYd
62
8
10
120.0148
20
-146.3372
11
116.4148
21
-146.3372
0
LINE
8
BCrtYd
62
8
10
120.0148
20
-122.4372
11
120.0148
21
-146.3372
0
LINE
8
BCrtYd
62
8
10
116.4148
20
-146.3372
11
116.4148
21
-122.4372
0
LINE
8
BFab
62
6
10
116.9448
20
-122.9472
11
116.9448
21
-145.1722
0
LINE
8
BFab
62
6
10
117.5798
20
-145.8072
11
119.4848
21
-145.8072
0
LINE
8
BFab
62
6
10
119.4848
20
-145.8072
11
119.4848
21
-122.9472
0
LINE
8
BFab
62
6
10
119.4848
20
-122.9472
11
116.9448
21
-122.9472
0
LINE
8
BFab
62
6
10
116.9448
20
-145.1722
11
117.5798
21
-145.8072
0
LINE
8
BCrtYd
62
8
10
103.3
20
-143.7
11
103.3
21
-147.3
0
LINE
8
BCrtYd
62
8
10
87.0
20
-143.7
11
103.3
21
-143.7
0
LINE
8
BCrtYd
62
8
10
87.0
20
-147.3
11
87.0
21
-143.7
0
LINE
8
BCrtYd
62
8
10
103.3
20
-147.3
11
87.0
21
-147.3
0
LINE
8
BFab
62
6
10
88.165
20
-144.23
11
87.53
21
-144.865
0
LINE
8
BFab
62
6
10
87.53
20
-144.865
11
87.53
21
-146.77
0
LINE
8
BFab
62
6
10
87.53
20
-146.77
11
102.77
21
-146.77
0
LINE
8
BFab
62
6
10
102.77
20
-144.23
11
88.165
21
-144.23
0
LINE
8
BFab
62
6
10
102.77
20
-146.77
11
102.77
21
-144.23
0
LINE
8
BCrtYd
62
8
10
54.95
20
-99.0
11
54.95
21
-95.4
0
LINE
8
BCrtYd
62
8
10
81.4
20
-95.4
11
81.4
21
-99.0
0
LINE
8
BCrtYd
62
8
10
54.95
20
-95.4
11
81.4
21
-95.4
0
LINE
8
BCrtYd
62
8
10
81.4
20
-99.0
11
54.95
21
-99.0
0
LINE
8
BFab
62
6
10
55.47
20
-98.47
11
80.235
21
-98.47
0
LINE
8
BFab
62
6
10
80.235
20
-98.47
11
80.87
21
-97.835
0
LINE
8
BFab
62
6
10
80.87
20
-95.93
11
55.47
21
-95.93
0
LINE
8
BFab
62
6
10
55.47
20
-95.93
11
55.47
21
-98.47
0
LINE
8
BFab
62
6
10
80.87
20
-97.835
11
80.87
21
-95.93
0
LINE
8
BCrtYd
62
8
10
103.2
20
-95.4
11
103.2
21
-99.0
0
LINE
8
BCrtYd
62
8
10
81.85
20
-99.0
11
81.85
21
-95.4
0
LINE
8
BCrtYd
62
8
10
103.2
20
-99.0
11
81.85
21
-99.0
0
LINE
8
BCrtYd
62
8
10
81.85
20
-95.4
11
103.2
21
-95.4
0
LINE
8
BFab
62
6
10
82.35
20
-95.93
11
82.35
21
-98.47
0
LINE
8
BFab
62
6
10
102.035
20
-98.47
11
102.67
21
-97.835
0
LINE
8
BFab
62
6
10
82.35
20
-98.47
11
102.035
21
-98.47
0
LINE
8
BFab
62
6
10
102.67
20
-95.93
11
82.35
21
-95.93
0
LINE
8
BFab
62
6
10
102.67
20
-97.835
11
102.67
21
-95.93
0
CIRCLE
8
0
10
69.7342
20
-97.036837
40
0.254
0
LINE
8
0
10
104.2782
20
-96.023156
11
104.2782
21
-107.450837
0
LINE
8
0
10
106.7582
20
-109.990837
11
106.7582
21
-142.756837
0
CIRCLE
8
0
10
72.2742
20
-97.036837
40
0.254
0
CIRCLE
8
0
10
86.4682
20
-97.036837
40
0.254
0
CIRCLE
8
0
10
57.0342
20
-97.036837
40
0.254
0
CIRCLE
8
0
10
71.2282
20
-145.296837
40
0.254
0
CIRCLE
8
0
10
99.1682
20
-97.036837
40
0.254
0
CIRCLE
8
0
10
73.7682
20
-145.296837
40
0.254
0
CIRCLE
8
0
10
81.3882
20
-145.296837
40
0.254
0
CIRCLE
8
0
10
76.3082
20
-145.296837
40
0.254
0
CIRCLE
8
0
10
96.6282
20
-97.036837
40
0.254
0
CIRCLE
8
0
10
68.6882
20
-145.296837
40
0.254
0
LINE
8
0
10
106.7582
20
-142.756837
11
104.2782
21
-145.296837
0
CIRCLE
8
0
10
74.8142
20
-97.036837
40
0.254
0
CIRCLE
8
0
10
66.1482
20
-145.296837
40
0.254
0
CIRCLE
8
0
10
89.0082
20
-145.296837
40
0.254
0
CIRCLE
8
0
10
83.9282
20
-145.296837
40
0.254
0
LINE
8
0
10
38.2082
20
-147.836837
11
38.2082
21
-94.458364
0
CIRCLE
8
0
10
53.4782
20
-97.036837
40
1.5875
0
LINE
8
0
10
104.2782
20
-147.836837
11
38.2082
21
-147.836837
0
CIRCLE
8
0
10
62.1142
20
-97.036837
40
0.254
0
CIRCLE
8
0
10
104.2782
20
-112.276837
40
1.5875
0
CIRCLE
8
0
10
77.3542
20
-97.036837
40
0.254
0
CIRCLE
8
0
10
96.6282
20
-145.296837
40
0.254
0
LINE
8
0
10
102.713408
20
-94.458364
11
38.2082
21
-94.458364
0
CIRCLE
8
0
10
104.2782
20
-140.216837
40
1.5875
0
CIRCLE
8
0
10
52.1782
20
-145.296837
40
1.5875
0
CIRCLE
8
0
10
89.0082
20
-97.036837
40
0.254
0
LINE
8
0
10
104.2782
20
-107.450837
11
106.7582
21
-109.990837
0
CIRCLE
8
0
10
78.8482
20
-145.296837
40
0.254
0
CIRCLE
8
0
10
79.8942
20
-97.036837
40
0.254
0
CIRCLE
8
0
10
67.1942
20
-97.036837
40
0.254
0
CIRCLE
8
0
10
91.5482
20
-145.296837
40
0.254
0
CIRCLE
8
0
10
94.0882
20
-145.296837
40
0.254
0
LINE
8
0
10
104.2782
20
-147.836837
11
104.2782
21
-145.296837
0
CIRCLE
8
0
10
64.6542
20
-97.036837
40
0.254
0
LINE
8
0
10
104.2782
20
-96.023156
11
102.713408
21
-94.458364
0
CIRCLE
8
0
10
101.7082
20
-145.296837
40
0.254
0
CIRCLE
8
0
10
101.7082
20
-97.036837
40
0.254
0
CIRCLE
8
0
10
91.5482
20
-97.036837
40
0.254
0
CIRCLE
8
0
10
99.1682
20
-145.296837
40
0.254
0
CIRCLE
8
0
10
94.0882
20
-97.036837
40
0.254
0
CIRCLE
8
0
10
83.9282
20
-97.036837
40
0.254
0
CIRCLE
8
0
10
59.5742
20
-97.036837
40
0.254
0
ARC
8
Edge
62
2
10
119.898351
20
-146.374175
30
0
40
1.149362
50
-226.844327
51
-108.324727
0
LINE
8
Edge
62
2
10
118.364
20
-89.0228
11
38.1832
21
-88.9476
0
LINE
8
Edge
62
2
10
38.4832
20
-147.9476
11
118.5196
21
-148.0
0
ARC
8
Edge
62
2
10
38.4832
20
-147.9476
30
0
40
1.077929
50
108.286543
51
145.269743
0
LINE
8
Edge
62
2
10
119.898351
20
-146.374175
11
119.8912
21
-90.4452
0
LINE
8
Edge
62
2
10
36.9832
20
-90.6992
11
36.9832
21
-89.5476
0
ARC
8
Edge
62
2
10
36.9832
20
-89.5476
30
0
40
0.679493
50
-2.454027
51
35.729173
0
ARC
8
Edge
62
2
10
118.364
20
-89.0228
30
0
40
1.103408
50
-143.889235
51
-23.998035
0
LINE
8
Edge
62
2
10
36.9832
20
-146.4476
11
36.9832
21
-90.6992
0
ENDSEC
0
EOF
